<?xml version="1.0" encoding="utf-8"?>
<!-- Generator: Adobe Illustrator 16.0.0, SVG Export Plug-In . SVG Version: 6.00 Build 0)  -->
<!DOCTYPE svg PUBLIC "-//W3C//DTD SVG 1.1//EN" "http://www.w3.org/Graphics/SVG/1.1/DTD/svg11.dtd">
<svg version="1.1" id="圖層_1" xmlns="http://www.w3.org/2000/svg" xmlns:xlink="http://www.w3.org/1999/xlink" x="0px" y="0px"
	 width="158.74px" height="158.74px" viewBox="87.075 364.27 158.74 158.74" enable-background="new 87.075 364.27 158.74 158.74"
	 xml:space="preserve">
<circle fill="none" stroke="#BFBEBE" stroke-width="3" stroke-miterlimit="10" cx="166.445" cy="443.639" r="76.493"/>
<g>
	<path fill="none" stroke="#BFBEBE" stroke-width="3" stroke-miterlimit="10" d="M142.562,414.501
		c0-13.207,10.674-23.881,23.882-23.881c13.207,0,23.881,10.674,23.881,23.881s-10.674,23.883-23.881,23.883
		C153.236,438.384,142.562,427.528,142.562,414.501z"/>
	<path fill="none" stroke="#BFBEBE" stroke-width="3" stroke-miterlimit="10" d="M162.283,444.403c-0.724,0-1.267,0.652-1.086,1.141
		l1.991,6.684h6.694l1.988-6.684c0.183-0.652-0.361-1.141-1.084-1.141H162.283z"/>
	<polygon fill="none" stroke="#BFBEBE" stroke-width="3" stroke-miterlimit="10" points="163.188,456.852 158.664,486.871 
		166.444,492.661 174.405,486.871 169.881,456.852 	"/>
	<path fill="none" stroke="#BFBEBE" stroke-width="3" stroke-miterlimit="10" d="M146.19,444.403
		c-10.312,0-18.273,7.824-17.549,17.118l2.533,31.14h23.882l-5.79-48.258H146.19z"/>
	<path fill="none" stroke="#BFBEBE" stroke-width="3" stroke-miterlimit="10" d="M186.696,444.403h-3.075l-5.79,48.258h23.883
		l2.533-31.14C204.969,452.227,197.008,444.403,186.696,444.403z"/>
</g>
</svg>
