<?xml version="1.0" encoding="utf-8"?>
<!-- Generator: Adobe Illustrator 16.0.0, SVG Export Plug-In . SVG Version: 6.00 Build 0)  -->
<!DOCTYPE svg PUBLIC "-//W3C//DTD SVG 1.1//EN" "http://www.w3.org/Graphics/SVG/1.1/DTD/svg11.dtd">
<svg version="1.1" id="圖層_1" xmlns="http://www.w3.org/2000/svg" xmlns:xlink="http://www.w3.org/1999/xlink" x="0px" y="0px"
	 width="158.74px" height="158.74px" viewBox="341.575 218.271 158.74 158.74"
	 enable-background="new 341.575 218.271 158.74 158.74" xml:space="preserve">
<circle fill="none" stroke="#BFBEBE" stroke-width="3" stroke-miterlimit="10" cx="420.945" cy="297.641" r="76.494"/>
<line fill="none" stroke="#BFBEBE" stroke-width="3" stroke-linecap="round" stroke-linejoin="round" stroke-miterlimit="10" x1="419.916" y1="272.953" x2="440.005" y2="272.953"/>
<line fill="none" stroke="#BFBEBE" stroke-width="3" stroke-linecap="round" stroke-linejoin="round" stroke-miterlimit="10" x1="440.005" y1="283.881" x2="419.916" y2="283.881"/>
<line fill="none" stroke="#BFBEBE" stroke-width="3" stroke-linecap="round" stroke-linejoin="round" stroke-miterlimit="10" x1="440.005" y1="294.809" x2="419.916" y2="294.809"/>
<line fill="none" stroke="#BFBEBE" stroke-width="3" stroke-linecap="round" stroke-linejoin="round" stroke-miterlimit="10" x1="440.005" y1="305.739" x2="399.528" y2="305.739"/>
<line fill="none" stroke="#BFBEBE" stroke-width="3" stroke-linecap="round" stroke-linejoin="round" stroke-miterlimit="10" x1="419.916" y1="316.538" x2="399.528" y2="316.538"/>
<path fill="none" stroke="#BFBEBE" stroke-width="3" stroke-linecap="round" stroke-linejoin="round" stroke-miterlimit="10" d="
	M426.234,325.522c0,0,6.74-2.416,7-6.803c0.225-3.773-5.936-3.967-4.92,1.068c0.701,3.492,5.295,5.651,6.576,5.734
	c2.25,0.148,5.453-1.357,5.34-4.164"/>
<circle fill="none" stroke="#BFBEBE" stroke-width="3" stroke-linecap="round" stroke-linejoin="round" stroke-miterlimit="10" cx="406.059" cy="277.97" r="5.912"/>
<polyline fill="none" stroke="#BFBEBE" stroke-width="3" stroke-linecap="round" stroke-linejoin="round" stroke-miterlimit="10" points="
	409.198,283.162 409.198,294.602 405.966,291.462 402.733,294.602 402.733,283.162 "/>
<line fill="none" stroke="#BFBEBE" stroke-width="3" stroke-linecap="round" stroke-linejoin="round" stroke-miterlimit="10" x1="376.479" y1="336.448" x2="439.63" y2="336.448"/>
<path fill="none" stroke="#BFBEBE" stroke-width="3" stroke-linecap="round" stroke-linejoin="round" stroke-miterlimit="10" d="
	M439.63,336.898c0,3.974,3.223,7.196,7.197,7.196c3.973,0,7.195-3.223,7.195-7.196"/>
<path fill="none" stroke="#BFBEBE" stroke-width="3" stroke-linecap="round" stroke-linejoin="round" stroke-miterlimit="10" d="
	M468.416,262.929c0-3.974-3.223-7.196-7.197-7.196c-3.973,0-7.195,3.222-7.195,7.196"/>
<line fill="none" stroke="#BFBEBE" stroke-width="3" stroke-linecap="round" stroke-linejoin="round" stroke-miterlimit="10" x1="454.023" y1="336.898" x2="454.023" y2="262.929"/>
<line fill="none" stroke="#BFBEBE" stroke-width="3" stroke-linecap="round" stroke-linejoin="round" stroke-miterlimit="10" x1="461.218" y1="255.733" x2="395.537" y2="255.733"/>
<path fill="none" stroke="#BFBEBE" stroke-width="3" stroke-linecap="round" stroke-linejoin="round" stroke-miterlimit="10" d="
	M395.537,255.733c-3.975,0-7.195,3.222-7.195,7.196"/>
<line fill="none" stroke="#BFBEBE" stroke-width="3" stroke-linecap="round" stroke-linejoin="round" stroke-miterlimit="10" x1="388.342" y1="262.929" x2="388.342" y2="336.448"/>
<path fill="none" stroke="#BFBEBE" stroke-width="3" stroke-linecap="round" stroke-linejoin="round" stroke-miterlimit="10" d="
	M376.459,336.898c0,3.974,3.223,7.196,7.197,7.196"/>
<line fill="none" stroke="#BFBEBE" stroke-width="3" stroke-linecap="round" stroke-linejoin="round" stroke-miterlimit="10" x1="383.656" y1="344.094" x2="446.828" y2="344.094"/>
<line fill="none" stroke="#BFBEBE" stroke-width="3" stroke-linecap="round" stroke-linejoin="round" stroke-miterlimit="10" x1="468.416" y1="262.929" x2="454.023" y2="262.929"/>
</svg>
