<?xml version="1.0" encoding="utf-8"?>
<!-- Generator: Adobe Illustrator 16.0.0, SVG Export Plug-In . SVG Version: 6.00 Build 0)  -->
<!DOCTYPE svg PUBLIC "-//W3C//DTD SVG 1.1//EN" "http://www.w3.org/Graphics/SVG/1.1/DTD/svg11.dtd">
<svg version="1.1" id="圖層_1" xmlns="http://www.w3.org/2000/svg" xmlns:xlink="http://www.w3.org/1999/xlink" x="0px" y="0px"
	 width="158.74px" height="158.74px" viewBox="341.575 218.271 158.74 158.74"
	 enable-background="new 341.575 218.271 158.74 158.74" xml:space="preserve">
<circle fill="none" stroke="#BFBEBE" stroke-width="3" stroke-miterlimit="10" cx="421.245" cy="298.06" r="76.493"/>
<path fill="none" stroke="#BFBEBE" stroke-width="3" stroke-linecap="round" stroke-linejoin="round" stroke-miterlimit="10" d="
	M388.069,312.449l-22.703-16.209l17.466-26.536l12.218,7.496c0,0,8.639-4.647,20.932-5.622"/>
<path fill="none" stroke="#BFBEBE" stroke-width="3" stroke-linecap="round" stroke-linejoin="round" stroke-miterlimit="10" d="
	M397.373,311.24c0,0-3.732-3.867-6.864-1.211c-0.888,0.754-2.027,2.558-2.43,3.525c-4.314,10.379,6.385,8.242,5.358,7.777"/>
<path fill="none" stroke="#BFBEBE" stroke-width="3" stroke-linecap="round" stroke-linejoin="round" stroke-miterlimit="10" d="
	M406.943,314.833c0,0-1.292-6.17-5.484-4.896c-2.179,0.663-3.508,2.121-4.798,3.654c-1.381,1.641-2.7,3.841-2.933,6.203
	c-0.284,2.893,1.714,8.045,7.542,7.746"/>
<path fill="none" stroke="#BFBEBE" stroke-width="3" stroke-linecap="round" stroke-linejoin="round" stroke-miterlimit="10" d="
	M413.593,318.099c0,0-1.784-4.063-5.061-3.814c-2.727,0.207-5.226,4.424-5.894,5.81c-0.666,1.382-2.174,5.46-1.368,7.446
	c0.807,1.986,2.755,5.859,6.915,3.91"/>
<path fill="none" stroke="#BFBEBE" stroke-width="3" stroke-linecap="round" stroke-linejoin="round" stroke-miterlimit="10" d="
	M419.018,323.749c0,0-1.63-4.91-4.797-4.91c-2.343,0-3.955,1.931-4.517,3.86c-0.675,2.316-1.668,7.178,0.188,9.596
	c1.291,1.682,3.579,2.607,4.947,2.791c0.26,0.035,2.397,0.234,3.129-1.799C418.85,330.832,419.278,324.686,419.018,323.749z"/>
<path fill="none" stroke="#BFBEBE" stroke-width="3" stroke-linecap="round" stroke-linejoin="round" stroke-miterlimit="10" d="
	M419.298,329.99c0,0,6.887,4.895,8.743,5.427s5.256,0.081,5.902-3.882"/>
<path fill="none" stroke="#BFBEBE" stroke-width="3" stroke-linecap="round" stroke-linejoin="round" stroke-miterlimit="10" d="
	M423.121,320.713c0,0,10.852,10.71,11.441,11.131c0.59,0.422,6.016-0.196,7.449-5.2c-12.902-13.492-12.902-13.492-12.902-13.492"/>
<path fill="none" stroke="#BFBEBE" stroke-width="3" stroke-linecap="round" stroke-linejoin="round" stroke-miterlimit="10" d="
	M442.152,326.503c0,0,6.465-0.225,7.646-7.083c-14.027-12.987-14.027-12.987-14.027-12.987"/>
<path fill="none" stroke="#BFBEBE" stroke-width="3" stroke-linecap="round" stroke-linejoin="round" stroke-miterlimit="10" d="
	M449.937,319.533c0,0,6.438,0.674,7.168-6.803c-14.223-13.971-14.223-13.971-14.223-13.971s-6.072-2.361-8.996-4.413
	c-2.922-2.052-6.887-6.69-7.672-11.582c-6.776,0.647-6.776,0.647-6.776,0.647s-3.682,4.16-9.641,5.229
	c-5.96,1.068-6.353-3.12-5.65-5.201c0.703-2.08,5.523-7.862,11.546-11.495c5.313-3.205,10.013-1.885,12.066-0.985l17.709,8.798
	l20.717-7.73l10.963,29.739l-20.1,10.345"/>
</svg>
